<?xml version="1.0"?>
<svg xmlns="http://www.w3.org/2000/svg" xmlns:xlink="http://www.w3.org/1999/xlink" xmlns:svgjs="http://svgjs.com/svgjs" version="1.1" width="512" height="512" x="0" y="0" viewBox="0 0 512 512" style="enable-background:new 0 0 512 512" xml:space="preserve" class=""><g><g xmlns="http://www.w3.org/2000/svg"><g><path d="m475.957 130.158 8.244 23.181c.353.992 1.052 1.779 1.934 2.176l20.596 9.279c2.91 1.311 2.91 5.947 0 7.258l-20.596 9.279c-.882.397-1.581 1.184-1.934 2.176l-8.244 23.181c-1.165 3.275-5.284 3.275-6.448 0l-8.244-23.181c-.353-.993-1.052-1.779-1.934-2.176l-20.596-9.279c-2.91-1.311-2.91-5.947 0-7.258l20.596-9.279c.882-.397 1.581-1.184 1.934-2.176l8.244-23.181c1.164-3.275 5.283-3.275 6.448 0z" fill="#f59622" data-original="#000000" style=""/><path d="m361.379 1.822 6.115 17.195c.262.736.78 1.32 1.434 1.614l15.277 6.883c2.158.972 2.158 4.411 0 5.384l-15.277 6.883c-.654.295-1.173.878-1.434 1.614l-6.115 17.195c-.864 2.429-3.919 2.429-4.783 0l-6.115-17.195c-.262-.736-.78-1.32-1.434-1.614l-15.278-6.883c-2.158-.972-2.158-4.411 0-5.384l15.278-6.883c.654-.295 1.172-.878 1.434-1.614l6.115-17.195c.864-2.429 3.919-2.429 4.783 0z" fill="#f59622" data-original="#000000" style=""/><path d="m336.656 85.046c0 4.289-3.477 7.765-7.765 7.765-4.289 0-7.766-3.477-7.766-7.765 0-4.289 3.477-7.766 7.766-7.766s7.765 3.477 7.765 7.766z" fill="#f59622" data-original="#000000" style=""/></g><g><path d="m96.911 175.943c0 7.364-5.97 13.334-13.334 13.334s-13.334-5.97-13.334-13.334 5.97-13.334 13.334-13.334 13.334 5.97 13.334 13.334z" fill="#f59622" data-original="#000000" style=""/><path d="m232.174 175.943c0 7.364-5.97 13.334-13.334 13.334s-13.334-5.97-13.334-13.334 5.97-13.334 13.334-13.334 13.334 5.97 13.334 13.334z" fill="#f59622" data-original="#000000" style=""/><path d="m178.27 221.489c0-3.326-2.696-6.022-6.022-6.022-6.873 0-12.656-4.69-14.357-11.034 3.63-2.551 7.238-6.471 7.238-10.869 0-7.688-6.232-9.912-13.921-9.912-7.688 0-13.921 2.224-13.921 9.912 0 4.399 3.608 8.318 7.238 10.869-1.701 6.343-7.484 11.034-14.357 11.034-3.326 0-6.022 2.696-6.022 6.022 0 3.238 2.559 5.872 5.763 6.008 1.723 10.844 10.615 19.131 21.299 19.131s19.575-8.287 21.299-19.131c3.205-.136 5.763-2.769 5.763-6.008zm-27.062 13.096c-4.904 0-8.953-4.241-9.496-9.68 3.712-1.77 6.954-4.366 9.495-7.548 2.541 3.182 5.783 5.779 9.496 7.549-.542 5.439-4.591 9.679-9.495 9.679z" fill="#f59622" data-original="#000000" style=""/><path d="m94.138 152.865c-13.577 0-24.213-8.297-24.213-18.889 0-10.591 10.636-18.889 24.213-18.889s24.212 8.297 24.212 18.889-10.635 18.889-24.212 18.889zm0-25.734c-6.965 0-12.169 3.614-12.169 6.845s5.204 6.845 12.169 6.845 12.169-3.614 12.169-6.845-5.204-6.845-12.169-6.845z" fill="#f59622" data-original="#000000" style=""/><path d="m208.279 152.865c-13.577 0-24.212-8.297-24.212-18.889 0-10.591 10.635-18.889 24.212-18.889s24.212 8.297 24.212 18.889-10.635 18.889-24.212 18.889zm0-25.734c-6.965 0-12.169 3.614-12.169 6.845s5.204 6.845 12.169 6.845 12.169-3.614 12.169-6.845-5.205-6.845-12.169-6.845z" fill="#f59622" data-original="#000000" style=""/><path d="m48.892 100.44c-2.985.001-5.576-2.217-5.965-5.257-.423-3.299 1.908-6.315 5.207-6.738l5.979-.766c-7.006-11.424-11.935-25.742-12.199-26.516-1.073-3.147.608-6.567 3.754-7.641 3.148-1.075 6.569.606 7.644 3.752 2.087 6.108 9.043 23.566 16.08 30.908 1.573 1.641 2.088 4.029 1.33 6.172-.757 2.144-2.657 3.678-4.912 3.967l-16.145 2.069c-.26.034-.518.05-.773.05z" fill="#f59622" data-original="#000000" style=""/><path d="m253.525 100.44c-.255 0-.513-.016-.773-.049l-16.145-2.069c-2.255-.289-4.155-1.823-4.912-3.967-.758-2.144-.243-4.531 1.33-6.172 7.037-7.342 13.993-24.801 16.08-30.908 1.075-3.147 4.498-4.827 7.644-3.752 3.147 1.074 4.828 4.494 3.754 7.641-.264.773-5.193 15.092-12.199 26.516l5.979.766c3.299.423 5.63 3.44 5.207 6.738-.39 3.038-2.981 5.256-5.965 5.256z" fill="#f59622" data-original="#000000" style=""/><path d="m507.923 23.926c3.626-4.192 3.168-10.53-1.024-14.157-4.192-3.626-10.53-3.168-14.157 1.024l-204.839 236.79c-.713-.305-1.423-.618-2.138-.919 7.362-9.814 12.062-20.089 13.999-30.698l172.931-198.725c3.639-4.181 3.199-10.52-.983-14.159-4.181-3.639-10.521-3.198-14.159.982l-157.934 181.492c-2.396-19.927-8.468-39.661-17.936-58.072 10.59-33.658 18.048-70.185 5.428-109.846-2.453-7.709-8.9-13.488-16.824-15.08-7.73-1.552-15.697 1.119-20.93 6.982l-43.914 42.89-.353.302-.3.354c-16.583-7.202-33.96-10.854-51.649-10.854-18.598 0-36.974 4.02-54.611 11.961l-.364-.428-46.518-43.712c-5.234-5.805-13.163-8.443-20.852-6.899-7.928 1.594-14.378 7.377-16.832 15.093-11.535 36.26-5.668 70.555 7.125 110.404-12.742 24.124-19.458 50.353-19.458 76.131 0 31.448 23.906 60.452 69.133 83.878 2.362 1.224 4.757 2.41 7.169 3.566-3.203 14.893-4.822 31.963-4.822 51.17 0 3.015.141 5.964.4 8.856-.127.637-.196 1.295-.196 1.969v128.848l-2.239 6.555c-1.759 5.154-.918 10.875 2.25 15.304 3.168 4.43 8.311 7.074 13.757 7.074h32.831c4.431 0 8.338-2.906 9.612-7.151l18.546-61.785c1.652.741 3.311 1.456 4.976 2.145v37.857l-2.238 6.555c-1.76 5.154-.919 10.875 2.249 15.304 3.168 4.43 8.311 7.074 13.756 7.074h32.831c4.729 0 8.816-3.301 9.811-7.923l9.753-45.273c2.908.081 5.877.124 8.908.124 10.133 0 20.894-.466 31.836-1.364-.033.703-.067 1.408-.101 2.147-.214 4.595-.456 9.795-.827 15.014-.344.798-1.836 2.543-2.741 3.603-2.103 2.461-4.486 5.251-5.778 8.96-1.989 5.71-.671 11.467 3.709 16.213 5.362 5.809 13.676 7.937 22.175 7.937 9.996 0 20.246-2.946 26.238-6.313 1.735-.976 3.142-2.445 4.04-4.222l18.953-37.495c.029-.058.058-.117.087-.176.849-1.765 1.902-3.685 3.017-5.718.708-1.291 1.464-2.673 2.22-4.125l4.714.356c-.098 1.854-.191 3.845-.29 5.97-.214 4.594-.456 9.794-.827 15.011-.344.798-1.836 2.543-2.741 3.603-2.103 2.461-4.486 5.251-5.778 8.96-1.988 5.71-.671 11.468 3.71 16.213 5.361 5.809 13.676 7.937 22.174 7.937 9.996 0 20.246-2.946 26.238-6.313 1.447-.813 2.669-1.972 3.558-3.373l22.692-35.772c.077-.121.151-.244.222-.368.84-1.458 1.965-3.079 3.155-4.795 5.412-7.8 15.069-21.715 3.68-38.936 6.328-17.24 5.627-37.857-1.634-55.79 15.935-4.84 29.111-14.224 37.876-27.242 11.181-16.606 14.23-37.602 8.586-59.12-5.852-22.312-20.666-41.452-40.642-52.513-18.276-10.119-38.823-12.414-57.859-6.463-12.35 3.861-31.99 14.18-39.939 41.297-3.605-1.956-7.262-3.862-10.971-5.707zm-483.663 195.269c-1.633-4.6-2.557-9.404-2.557-14.413 0-23.746 6.577-48.027 19.02-70.22l2.16-3.853-1.382-4.196c-12.851-39.005-18.74-69.703-8.409-102.181.327-1.029 1.083-1.382 1.66-1.499.164-.033.323-.049.477-.049.603 0 1.124.254 1.552.757l.364.428 46.529 43.722c5.789 6.366 15.178 8.346 23.076 4.799 15.04-6.758 30.648-10.185 46.391-10.185 14.922 0 29.609 3.093 43.653 9.192 8.015 3.481 17.165 1.475 22.952-4.978l43.92-42.896.633-.678c.538-.633 1.222-.872 2.035-.709.574.116 1.326.467 1.65 1.487 9.224 28.987 7.285 58.434-6.694 101.639l-1.328 4.107 2.067 3.789c12.224 22.407 18.686 47.138 18.686 71.522 0 5.039-.92 9.87-2.547 14.494-2.339-5.677-5.862-10.692-10.513-14.689-11.768-10.115-28.884-12.255-45.785-5.726-9.7 3.746-20.84-.254-25.917-9.305-9.805-17.479-25.058-26.718-44.109-26.718-19.232 0-34.78 9.412-44.966 27.219-5.176 9.052-16.132 12.801-26.048 8.912-17-6.665-34.219-4.564-46.064 5.617-4.647 3.994-8.167 8.972-10.506 14.611zm93.371 88.782c15.41 4.956 28.288 7.751 34.362 7.751 10.339 0 46.077-9.053 80.488-27.091 15.51-8.13 28.475-16.933 38.803-26.275 2.693 1.074 5.371 2.177 8.032 3.313-15.341 23.306-52.585 43.763-92.645 50.087-26.985 4.257-51.009 1.414-69.04-7.785zm-84.667-73.135c.453-8.595 3.773-16.07 9.651-21.122 8.404-7.223 21.045-8.546 33.818-3.538 15.529 6.089 32.728.14 40.898-14.145 8.03-14.038 19.641-21.156 34.512-21.156 14.643 0 25.95 6.919 33.606 20.566 7.988 14.24 25.511 20.538 40.761 14.647 12.691-4.902 25.249-3.547 33.594 3.625 5.918 5.086 9.221 12.698 9.632 21.37-11.476 15.093-29.86 27.165-46.273 35.769-32.558 17.068-65.61 24.797-71.169 24.797-5.608 0-39.016-7.737-71.997-24.82-16.706-8.652-35.422-20.806-47.033-35.993zm58.536 257.085 1.349-3.951c.357-1.044.539-2.14.539-3.243v-15.987h26.019l-6.959 23.181zm38.37-58.039-6.849 22.815h-29.633v-54.64c9.849 12.692 22.577 23.195 36.57 31.58-.027.083-.062.161-.088.245zm-36.686-90.493c0-13.241.794-25.255 2.363-36.037 12.953 11.596 30.456 18.883 50.908 21.389 3.609 7.483 6.505 18.073 6.615 32.855-.006.138-.021.274-.021.414v60.964c-27.21-12.918-59.865-37.234-59.865-79.585zm78.049 148.532 1.349-3.951c.357-1.044.539-2.14.539-3.243v-15.987h23.415l-4.993 23.181zm136.932-41.232c.424.099.85.193 1.277.284-.613 1.147-1.217 2.299-1.777 3.458l-1.145 2.266h-26.427c.021-.43.042-.87.064-1.289 1.684-.221 3.368-.439 5.047-.681 6.513-.94 14.387-2.256 22.961-4.038zm-36.363 40.374c2.926-3.43 6.757-8.086 7.231-14.693.186-2.589.339-5.148.474-7.63h20.927l-10.139 20.059c-5.827 2.317-14.017 3.111-18.493 2.264zm94.462-2.449c-5.847 2.459-14.352 3.318-18.945 2.449 2.926-3.429 6.757-8.085 7.231-14.693.186-2.589.339-5.148.473-7.63h23.848zm-2.494-248.711c13.748-4.298 28.718-2.57 42.147 4.866 15.201 8.417 26.482 23.012 30.949 40.045 3.254 12.405 2.68 24.403-1.504 34.668-1.66-21.486-8.772-37.013-21.24-46.287-20.383-15.162-47.697-7.93-54.316-5.846-6.562.889-13.317 3.518-19.508 5.932-1.447.564-3.185 1.242-4.872 1.859 3.767-22.787 17.216-31.759 28.344-35.237zm1.324 47.264c4.635.867 8.307 3.18 9.585 6.037.896 2.003.574 4.337-.957 6.938l-.828 1.234c-4.664-4.509-9.661-8.885-14.969-13.104 2.93-.871 5.574-1.406 7.169-1.105zm-54.398-6.174c1.321.736 2.622 1.478 3.914 2.224.4 6.154 3.577 9.472 5.621 10.984 4.313 3.191 9.353 3.281 14.806 2.028 11.807 8.331 21.878 17.059 30.077 25.992.752 1.479 1.876 2.795 3.352 3.784 4.604 3.087 10.839 1.858 13.925-2.747l8.148-12.153c.086-.127.168-.257.247-.388 5.088-8.396 5.875-17.527 2.217-25.707-1.528-3.417-3.741-6.456-6.512-9.031 6.919.434 14.269 2.268 20.491 6.914 12.152 9.075 17.704 27.01 16.552 53.276-7.481 6.632-17.312 11.044-28.647 12.758-1.853.002-3.726.507-5.401 1.581-.683.438-1.285.952-1.823 1.512-2.113 2.126-3.263 5.165-2.847 8.367.272 2.092 1.176 3.943 2.487 5.402 9.774 16.271 11.275 37.416 3.612 53.164-1.774 3.646-1.181 8 1.504 11.038 6.601 7.468 5.097 10.391-1.136 19.377-1.334 1.922-2.711 3.908-3.944 6.024l-.827 1.305h-30.901c.221-4.486.459-8.432.808-10.639.437-2.769-.304-5.594-2.043-7.793-1.739-2.198-4.319-3.569-7.114-3.78l-26.416-1.996c-10.823-1.359-16.82-2.585-23.432-12.285-6.315-9.264-5.469-25.668 1.886-36.566 5.611-8.313 13.368-11.457 23.059-9.341 5.415 1.182 10.764-2.25 11.946-7.665s-2.249-10.764-7.665-11.946c-17.734-3.869-33.763 2.589-43.978 17.723-11.947 17.702-12.735 43.109-1.834 59.102.789 1.157 1.585 2.239 2.388 3.265-23.606 3.404-47.196 4.578-66.448 3.839-.958-.597-2.026-1.052-3.193-1.303-5.419-1.164-10.758 2.28-11.925 7.698l-2.517 11.687h-26.01v-93.615c.013-.206.031-.411.031-.621 0-13.035-1.874-23.886-4.787-32.837 6.539-.233 13.281-.882 20.183-1.972 44.706-7.056 85.117-29.976 101.868-57.017 6.938 3.251 13.723 6.704 20.278 10.358z" fill="#f59622" data-original="#000000" style=""/><path d="m170.404 96.665c-.76 0-1.53-.087-2.301-.268-6.919-1.624-14.072-2.254-21.254-1.872-5.522.311-10.26-3.955-10.553-9.49s3.956-10.26 9.491-10.554c9.079-.483 18.133.317 26.901 2.374 5.396 1.266 8.745 6.667 7.479 12.063-1.086 4.626-5.21 7.747-9.763 7.747z" fill="#f59622" data-original="#000000" style=""/><path d="m106.298 106.636c-3.299 0-6.53-1.625-8.449-4.605-3-4.661-1.653-10.871 3.008-13.871 1.702-1.096 3.489-2.115 5.462-3.116 4.942-2.507 10.983-.534 13.491 4.41 2.508 4.943.534 10.983-4.41 13.491-1.356.688-2.56 1.373-3.68 2.094-1.68 1.08-3.562 1.597-5.422 1.597z" fill="#f59622" data-original="#000000" style=""/></g></g></g></svg>
