<?xml version="1.0"?>
<svg xmlns="http://www.w3.org/2000/svg" xmlns:xlink="http://www.w3.org/1999/xlink" xmlns:svgjs="http://svgjs.com/svgjs" version="1.1" width="512" height="512" x="0" y="0" viewBox="0 0 142.384 142.384" style="enable-background:new 0 0 512 512" xml:space="preserve" class=""><g>
<g xmlns="http://www.w3.org/2000/svg">
	<path d="M101.192,30.214V12.4c0-16.534-59.996-16.534-59.996,0v17.803c-7.978,3.098-12.378,7.406-12.378,12.276v82.853   c0,11.075,21.831,17.052,42.373,17.052c20.545,0,42.374-5.977,42.374-17.052V42.479C113.565,39,111.287,34.138,101.192,30.214z    M46.795,32.663c0.079-0.364,0.079-0.739,0-1.122V20.044c5.727,3.272,15.088,4.953,24.396,4.953c9.308,0,18.664-1.68,24.397-4.953   v13.822c0,2.46-9.259,6.988-24.397,6.988c-15.14,0-24.396-4.528-24.396-6.988V32.663z M71.191,5.413   c15.127,0,24.397,4.529,24.397,6.993c0,2.469-9.259,6.994-24.397,6.994c-15.14,0-24.396-4.525-24.396-6.994   C46.795,9.941,56.061,5.413,71.191,5.413z M41.624,36.08c2.454,6.816,16.064,10.377,29.568,10.377   c13.519,0,27.144-3.567,29.567-10.388c5.237,2.304,7.204,4.747,7.204,6.416c0,4.779-13.989,11.442-36.771,11.442   c-22.783,0-36.769-6.663-36.769-11.442C34.422,40.434,37.181,38.064,41.624,36.08z M34.422,74.332   c7.29,5.062,20.665,7.891,33.967,8.246v32.012c-21.13-0.529-33.967-6.835-33.967-11.413V74.332z M71.191,136.778   c-22.783,0-36.769-6.665-36.769-11.446V111.96c7.806,5.403,22.588,8.255,36.769,8.255c1.542,0,2.804-1.253,2.804-2.802V79.804   c0-1.549-1.262-2.801-2.804-2.801c-22.783,0-36.769-6.665-36.769-11.448V51.276c7.806,5.404,22.588,8.254,36.769,8.254   s28.974-2.851,36.771-8.254v74.056C107.963,130.113,93.974,136.778,71.191,136.778z" fill="#f59622" data-original="#000000" style="" class=""/>
</g>
<g xmlns="http://www.w3.org/2000/svg">
</g>
<g xmlns="http://www.w3.org/2000/svg">
</g>
<g xmlns="http://www.w3.org/2000/svg">
</g>
<g xmlns="http://www.w3.org/2000/svg">
</g>
<g xmlns="http://www.w3.org/2000/svg">
</g>
<g xmlns="http://www.w3.org/2000/svg">
</g>
<g xmlns="http://www.w3.org/2000/svg">
</g>
<g xmlns="http://www.w3.org/2000/svg">
</g>
<g xmlns="http://www.w3.org/2000/svg">
</g>
<g xmlns="http://www.w3.org/2000/svg">
</g>
<g xmlns="http://www.w3.org/2000/svg">
</g>
<g xmlns="http://www.w3.org/2000/svg">
</g>
<g xmlns="http://www.w3.org/2000/svg">
</g>
<g xmlns="http://www.w3.org/2000/svg">
</g>
<g xmlns="http://www.w3.org/2000/svg">
</g>
</g></svg>
